<?xml version="1.0" encoding="utf-8"?>
<!-- Generator: Adobe Illustrator 19.0.0, SVG Export Plug-In . SVG Version: 6.00 Build 0)  -->
<svg version="1.1" id="Layer_1" xmlns="http://www.w3.org/2000/svg" xmlns:xlink="http://www.w3.org/1999/xlink" x="0px" y="0px"
	 viewBox="0 0 163.4 142.4" style="enable-background:new 0 0 163.4 142.4;" xml:space="preserve">
<style type="text/css">
	.st0{fill:#3A3AFF;}
	.st1{fill:#FFFFFF;}
</style>
<path id="XMLID_1_" class="st0" d="M113.1,138.9H50.2c-22.6,0-41-18.4-41-41V44.5c0-22.6,18.4-41,41-41h62.9c22.6,0,41,18.4,41,41
	v53.3C154.1,120.5,135.8,138.9,113.1,138.9z"/>
<g id="XMLID_68_">
	<path id="XMLID_69_" class="st1" d="M53.8,51.7v7.1h-9.5v26.5h-7.4V58.7h-9.5v-7.1H53.8z"/>
	<path id="XMLID_71_" class="st1" d="M64.6,57.8h-7.7v-6.1h7.7V57.8z M64.4,61.3v24h-7.2v-24H64.4z"/>
	<path id="XMLID_74_" class="st1" d="M93.8,76.1c-0.2,1.6-0.6,3.1-1.3,4.3c-0.7,1.2-1.5,2.2-2.6,3c-1.1,0.8-2.3,1.4-3.6,1.8
		s-2.9,0.6-4.5,0.6c-2,0-3.7-0.3-5.2-1c-1.5-0.7-2.8-1.6-3.9-2.7c-1.1-1.1-1.9-2.5-2.4-4c-0.6-1.5-0.8-3.1-0.8-4.8
		c0-1.7,0.3-3.4,0.8-4.9c0.6-1.5,1.4-2.8,2.4-4c1.1-1.1,2.4-2,3.9-2.7c1.5-0.7,3.3-1,5.2-1c1.5,0,3,0.2,4.3,0.5
		c1.4,0.3,2.6,0.9,3.6,1.7c1,0.8,1.9,1.9,2.6,3.2c0.7,1.3,1.2,3,1.4,5h-6.2C87,68.4,85.1,67,81.8,67c-2,0-3.5,0.6-4.6,1.8
		c-1,1.2-1.5,2.7-1.5,4.5c0,1.9,0.5,3.4,1.6,4.6s2.6,1.7,4.5,1.7c1.6,0,2.8-0.3,3.7-0.8s1.5-1.4,2-2.6H93.8z"/>
	<path id="XMLID_76_" class="st1" d="M104.9,85.3h-7.2V51.6h7.2V69l8.4-7.7h8.9l-9.9,9.2l10.2,14.8h-8.6l-7.1-10.7l-1.9,1.8V85.3z"
		/>
	<path id="XMLID_78_" class="st1" d="M133.3,57.8h-7.7v-6.1h7.7V57.8z M133.1,61.3v24h-7.2v-24H133.1z"/>
</g>
<g id="XMLID_55_">
	<path id="XMLID_56_" class="st1" d="M53.8,51.7v7.1h-9.5v26.5h-7.4V58.7h-9.5v-7.1H53.8z"/>
	<path id="XMLID_58_" class="st1" d="M64.6,57.8h-7.7v-6.1h7.7V57.8z M64.4,61.3v24h-7.2v-24H64.4z"/>
	<path id="XMLID_61_" class="st1" d="M93.8,76.1c-0.2,1.6-0.6,3.1-1.3,4.3c-0.7,1.2-1.5,2.2-2.6,3c-1.1,0.8-2.3,1.4-3.6,1.8
		s-2.9,0.6-4.5,0.6c-2,0-3.7-0.3-5.2-1c-1.5-0.7-2.8-1.6-3.9-2.7c-1.1-1.1-1.9-2.5-2.4-4c-0.6-1.5-0.8-3.1-0.8-4.8
		c0-1.7,0.3-3.4,0.8-4.9c0.6-1.5,1.4-2.8,2.4-4c1.1-1.1,2.4-2,3.9-2.7c1.5-0.7,3.3-1,5.2-1c1.5,0,3,0.2,4.3,0.5
		c1.4,0.3,2.6,0.9,3.6,1.7c1,0.8,1.9,1.9,2.6,3.2c0.7,1.3,1.2,3,1.4,5h-6.2C87,68.4,85.1,67,81.8,67c-2,0-3.5,0.6-4.6,1.8
		c-1,1.2-1.5,2.7-1.5,4.5c0,1.9,0.5,3.4,1.6,4.6s2.6,1.7,4.5,1.7c1.6,0,2.8-0.3,3.7-0.8s1.5-1.4,2-2.6H93.8z"/>
	<path id="XMLID_63_" class="st1" d="M104.9,85.3h-7.2V51.6h7.2V69l8.4-7.7h8.9l-9.9,9.2l10.2,14.8h-8.6l-7.1-10.7l-1.9,1.8V85.3z"
		/>
	<path id="XMLID_65_" class="st1" d="M133.3,57.8h-7.7v-6.1h7.7V57.8z M133.1,61.3v24h-7.2v-24H133.1z"/>
</g>
<g id="XMLID_4_">
	<path id="XMLID_43_" class="st1" d="M53.8,51.7v7.1h-9.5v26.5h-7.4V58.7h-9.5v-7.1H53.8z"/>
	<path id="XMLID_45_" class="st1" d="M64.6,57.8h-7.7v-6.1h7.7V57.8z M64.4,61.3v24h-7.2v-24H64.4z"/>
	<path id="XMLID_48_" class="st1" d="M93.8,76.1c-0.2,1.6-0.6,3.1-1.3,4.3c-0.7,1.2-1.5,2.2-2.6,3c-1.1,0.8-2.3,1.4-3.6,1.8
		s-2.9,0.6-4.5,0.6c-2,0-3.7-0.3-5.2-1c-1.5-0.7-2.8-1.6-3.9-2.7c-1.1-1.1-1.9-2.5-2.4-4c-0.6-1.5-0.8-3.1-0.8-4.8
		c0-1.7,0.3-3.4,0.8-4.9c0.6-1.5,1.4-2.8,2.4-4c1.1-1.1,2.4-2,3.9-2.7c1.5-0.7,3.3-1,5.2-1c1.5,0,3,0.2,4.3,0.5
		c1.4,0.3,2.6,0.9,3.6,1.7c1,0.8,1.9,1.9,2.6,3.2c0.7,1.3,1.2,3,1.4,5h-6.2C87,68.4,85.1,67,81.8,67c-2,0-3.5,0.6-4.6,1.8
		c-1,1.2-1.5,2.7-1.5,4.5c0,1.9,0.5,3.4,1.6,4.6s2.6,1.7,4.5,1.7c1.6,0,2.8-0.3,3.7-0.8s1.5-1.4,2-2.6H93.8z"/>
	<path id="XMLID_50_" class="st1" d="M104.9,85.3h-7.2V51.6h7.2V69l8.4-7.7h8.9l-9.9,9.2l10.2,14.8h-8.6l-7.1-10.7l-1.9,1.8V85.3z"
		/>
	<path id="XMLID_52_" class="st1" d="M133.3,57.8h-7.7v-6.1h7.7V57.8z M133.1,61.3v24h-7.2v-24H133.1z"/>
</g>
</svg>
