<?xml version="1.0" encoding="utf-8"?>
<!-- Generator: Adobe Illustrator 19.0.0, SVG Export Plug-In . SVG Version: 6.00 Build 0)  -->
<svg version="1.1" id="Layer_1" xmlns="http://www.w3.org/2000/svg" xmlns:xlink="http://www.w3.org/1999/xlink" x="0px" y="0px"
	 viewBox="0 0 163.4 70" style="enable-background:new 0 0 163.4 70;" xml:space="preserve">
<style type="text/css">
	.st0{display:none;fill:#3A3AFF;}
	.st1{fill:#1A1A1A;}
</style>
<path id="XMLID_1_" class="st0" d="M113.1,102.7H50.2c-22.6,0-41-18.4-41-41V8.4c0-22.6,18.4-41,41-41h62.9c22.6,0,41,18.4,41,41
	v53.3C154.1,84.3,135.8,102.7,113.1,102.7z"/>
<g id="XMLID_107_">
	<path id="XMLID_108_" class="st1" d="M42.3,7.5v10H28.9v37.5H18.5V17.4H5.1v-10H42.3z"/>
	<path id="XMLID_110_" class="st1" d="M57.6,16.1H46.7V7.5h10.8V16.1z M57.2,21v33.9H47.1V21H57.2z"/>
	<path id="XMLID_113_" class="st1" d="M98.8,42c-0.3,2.3-0.9,4.3-1.8,6c-0.9,1.7-2.2,3.1-3.7,4.2c-1.5,1.1-3.2,1.9-5.2,2.5
		c-1.9,0.6-4,0.8-6.3,0.8c-2.8,0-5.2-0.5-7.4-1.4s-4-2.2-5.5-3.8c-1.5-1.6-2.6-3.5-3.4-5.6c-0.8-2.1-1.2-4.4-1.2-6.8
		c0-2.4,0.4-4.7,1.2-6.9c0.8-2.1,1.9-4,3.4-5.6c1.5-1.6,3.3-2.8,5.5-3.8c2.2-0.9,4.6-1.4,7.4-1.4c2.2,0,4.2,0.2,6.1,0.7
		c1.9,0.5,3.6,1.2,5.1,2.4c1.5,1.1,2.7,2.6,3.7,4.5c1,1.9,1.6,4.2,2,7h-8.8c-0.8-3.9-3.4-5.8-8-5.8c-2.8,0-5,0.8-6.4,2.5
		c-1.4,1.7-2.2,3.8-2.2,6.4c0,2.7,0.8,4.9,2.3,6.5c1.5,1.6,3.6,2.4,6.3,2.4c2.2,0,3.9-0.4,5.2-1.2c1.2-0.8,2.2-2,2.8-3.7H98.8z"/>
	<path id="XMLID_115_" class="st1" d="M114.5,54.9h-10.2V7.4h10.2v24.5L126.4,21h12.5L125,34l14.4,20.9h-12.2l-10-15l-2.7,2.6V54.9z
		"/>
	<path id="XMLID_117_" class="st1" d="M154.6,16.1h-10.8V7.5h10.8V16.1z M154.3,21v33.9h-10.2V21H154.3z"/>
</g>
<g id="XMLID_94_">
	<path id="XMLID_95_" class="st1" d="M42.3,7.5v10H28.9v37.5H18.5V17.4H5.1v-10H42.3z"/>
	<path id="XMLID_97_" class="st1" d="M57.6,16.1H46.7V7.5h10.8V16.1z M57.2,21v33.9H47.1V21H57.2z"/>
	<path id="XMLID_100_" class="st1" d="M98.8,42c-0.3,2.3-0.9,4.3-1.8,6c-0.9,1.7-2.2,3.1-3.7,4.2c-1.5,1.1-3.2,1.9-5.2,2.5
		c-1.9,0.6-4,0.8-6.3,0.8c-2.8,0-5.2-0.5-7.4-1.4s-4-2.2-5.5-3.8c-1.5-1.6-2.6-3.5-3.4-5.6c-0.8-2.1-1.2-4.4-1.2-6.8
		c0-2.4,0.4-4.7,1.2-6.9c0.8-2.1,1.9-4,3.4-5.6c1.5-1.6,3.3-2.8,5.5-3.8c2.2-0.9,4.6-1.4,7.4-1.4c2.2,0,4.2,0.2,6.1,0.7
		c1.9,0.5,3.6,1.2,5.1,2.4c1.5,1.1,2.7,2.6,3.7,4.5c1,1.9,1.6,4.2,2,7h-8.8c-0.8-3.9-3.4-5.8-8-5.8c-2.8,0-5,0.8-6.4,2.5
		c-1.4,1.7-2.2,3.8-2.2,6.4c0,2.7,0.8,4.9,2.3,6.5c1.5,1.6,3.6,2.4,6.3,2.4c2.2,0,3.9-0.4,5.2-1.2c1.2-0.8,2.2-2,2.8-3.7H98.8z"/>
	<path id="XMLID_102_" class="st1" d="M114.5,54.9h-10.2V7.4h10.2v24.5L126.4,21h12.5L125,34l14.4,20.9h-12.2l-10-15l-2.7,2.6V54.9z
		"/>
	<path id="XMLID_104_" class="st1" d="M154.6,16.1h-10.8V7.5h10.8V16.1z M154.3,21v33.9h-10.2V21H154.3z"/>
</g>
<g id="XMLID_4_">
	<path id="XMLID_82_" class="st1" d="M42.3,7.5v10H28.9v37.5H18.5V17.4H5.1v-10H42.3z"/>
	<path id="XMLID_84_" class="st1" d="M57.6,16.1H46.7V7.5h10.8V16.1z M57.2,21v33.9H47.1V21H57.2z"/>
	<path id="XMLID_87_" class="st1" d="M98.8,42c-0.3,2.3-0.9,4.3-1.8,6c-0.9,1.7-2.2,3.1-3.7,4.2c-1.5,1.1-3.2,1.9-5.2,2.5
		c-1.9,0.6-4,0.8-6.3,0.8c-2.8,0-5.2-0.5-7.4-1.4s-4-2.2-5.5-3.8c-1.5-1.6-2.6-3.5-3.4-5.6c-0.8-2.1-1.2-4.4-1.2-6.8
		c0-2.4,0.4-4.7,1.2-6.9c0.8-2.1,1.9-4,3.4-5.6c1.5-1.6,3.3-2.8,5.5-3.8c2.2-0.9,4.6-1.4,7.4-1.4c2.2,0,4.2,0.2,6.1,0.7
		c1.9,0.5,3.6,1.2,5.1,2.4c1.5,1.1,2.7,2.6,3.7,4.5c1,1.9,1.6,4.2,2,7h-8.8c-0.8-3.9-3.4-5.8-8-5.8c-2.8,0-5,0.8-6.4,2.5
		c-1.4,1.7-2.2,3.8-2.2,6.4c0,2.7,0.8,4.9,2.3,6.5c1.5,1.6,3.6,2.4,6.3,2.4c2.2,0,3.9-0.4,5.2-1.2c1.2-0.8,2.2-2,2.8-3.7H98.8z"/>
	<path id="XMLID_89_" class="st1" d="M114.5,54.9h-10.2V7.4h10.2v24.5L126.4,21h12.5L125,34l14.4,20.9h-12.2l-10-15l-2.7,2.6V54.9z"
		/>
	<path id="XMLID_91_" class="st1" d="M154.6,16.1h-10.8V7.5h10.8V16.1z M154.3,21v33.9h-10.2V21H154.3z"/>
</g>
</svg>
